HIERARCHY
ROOT Hip
{
	OFFSET 0.000000 0.000000 0.000000 
	CHANNELS 6 Xposition Yposition Zposition Xrotation Yrotation Zrotation
	JOINT LowerSpine
	{
		OFFSET 0.000000 8.345300 -5.129200 
		CHANNELS 3 Xrotation Yrotation Zrotation
		JOINT MiddleSpine
		{
			OFFSET 10.856900 0.000000 0.000000 
			CHANNELS 3 Xrotation Yrotation Zrotation
			JOINT Chest
			{
				OFFSET 15.298400 0.000000 0.000000 
				CHANNELS 3 Xrotation Yrotation Zrotation
				JOINT Neck
				{
					OFFSET 25.661800 -0.598600 0.000000 
					CHANNELS 3 Xrotation Yrotation Zrotation
					JOINT Head
					{
						OFFSET 8.882900 0.000000 0.000000 
						CHANNELS 3 Xrotation Yrotation Zrotation
						End Site
						{
							OFFSET 19.739901 0.000000 0.000000 
						}
					}
				}
				JOINT RClavicle
				{
					OFFSET 23.687799 0.000000 3.158400 
					CHANNELS 3 Xrotation Yrotation Zrotation
					JOINT RShoulder
					{
						OFFSET -15.594500 -3.948000 0.987000 
						CHANNELS 3 Xrotation Yrotation Zrotation
						JOINT RForearm
						{
							OFFSET -31.337000 0.000000 0.197400 
							CHANNELS 3 Xrotation Yrotation Zrotation
							JOINT RHand
							{
								OFFSET -26.402100 0.000000 0.000000 
								CHANNELS 3 Xrotation Yrotation Zrotation
								End Site
								{
									OFFSET -15.791900 -0.987000 0.000000 
								}
							}
						}
					}
				}
				JOINT LClavicle
				{
					OFFSET 23.687799 0.000000 -3.158400 
					CHANNELS 3 Xrotation Yrotation Zrotation
					JOINT LShoulder
					{
						OFFSET -15.594500 -3.948000 -0.987000 
						CHANNELS 3 Xrotation Yrotation Zrotation
						JOINT LForearm
						{
							OFFSET -31.337000 0.000000 -0.197400 
							CHANNELS 3 Xrotation Yrotation Zrotation
							JOINT LHand
							{
								OFFSET -26.402100 0.000000 0.000000 
								CHANNELS 3 Xrotation Yrotation Zrotation
								End Site
								{
									OFFSET -15.791900 -0.987000 0.000000 
								}
							}
						}
					}
				}
			}
		}
	}
	JOINT RThigh
	{
		OFFSET -8.882900 0.448100 0.000000 
		CHANNELS 3 Xrotation Yrotation Zrotation
		JOINT RShin
		{
			OFFSET 43.131599 0.000000 -0.493500 
			CHANNELS 3 Xrotation Yrotation Zrotation
			JOINT RFoot
			{
				OFFSET 0.000000 -44.725601 -0.404700 
				CHANNELS 3 Xrotation Yrotation Zrotation
				JOINT RToe
				{
					OFFSET 0.000000 -3.933200 12.195300 
					CHANNELS 3 Xrotation Yrotation Zrotation
					End Site
					{
						OFFSET 6.772500 0.000000 0.000000 
					}
				}
			}
		}
	}
	JOINT LThigh
	{
		OFFSET 8.882900 0.448100 0.000000 
		CHANNELS 3 Xrotation Yrotation Zrotation
		JOINT LShin
		{
			OFFSET 43.131599 0.000000 0.493500 
			CHANNELS 3 Xrotation Yrotation Zrotation
			JOINT LFoot
			{
				OFFSET 0.000000 -44.725601 0.404700 
				CHANNELS 3 Xrotation Yrotation Zrotation
				JOINT LToe
				{
					OFFSET 0.000000 -3.933200 -12.195300 
					CHANNELS 3 Xrotation Yrotation Zrotation
					End Site
					{
						OFFSET 6.772500 0.000000 0.000000 
					}
				}
			}
		}
	}
}
MOTION
Frames: 10
Frame Time: 0.012949
14.420787 93.065826 -4.288742 -2.350511 2.413207 1.078977 -89.999992 -90.000000 0.000000 -0.034543 0.029772 0.069278 -0.107108 0.078536 0.221526 0.000000 0.000000 0.000000 0.000000 0.000000 0.000000 89.999321 -0.014960 -89.798729 -22.644615 -2.651325 8.248046 1.735107 18.649389 -6.197122 0.000000 0.000000 0.000000 -90.000626 -0.009135 -90.123032 8.799692 -1.081131 7.158450 -2.357331 -23.939451 -6.416995 0.000000 0.000000 0.000000 90.397255 88.645103 -172.576157 89.989944 1.121045 89.999008 -5.124712 -0.095841 -0.054290 178.764511 90.000000 0.000000 -98.740448 88.291222 13.708085 -89.971619 -3.161220 89.997734 3.353741 0.049936 -0.002977 182.225342 -90.000000 0.000000 
14.429760 93.090874 -4.294325 -2.498040 2.634771 1.145209 -89.999992 -90.000000 0.000000 -0.006684 0.027501 0.024535 -0.015213 0.075584 0.070494 0.000000 0.000000 0.000000 0.000000 0.000000 0.000000 89.998657 -0.032187 -89.567169 -23.421480 -2.805607 7.815302 1.755516 18.835205 -6.202384 0.000000 0.000000 0.000000 -90.000656 -0.009897 -90.133247 8.566252 -1.222587 8.164284 -3.098741 -29.731308 -6.745366 0.000000 0.000000 0.000000 89.103477 88.604973 -171.038086 89.992134 0.875741 89.999237 -4.851102 -0.339682 -0.158634 178.562042 90.000000 0.000000 -98.085503 88.324570 13.218427 -89.973373 -2.964977 89.997780 3.022003 -0.085638 0.060158 182.385422 -90.000000 0.000000 
14.412832 93.114731 -4.349808 -2.607339 2.647397 1.158631 -89.999992 -90.000000 0.000000 0.014890 0.018275 -0.021956 0.056714 0.048846 -0.085867 0.000000 0.000000 0.000000 0.000000 0.000000 0.000000 89.998169 -0.046313 -89.377327 -24.204126 -2.669718 7.622520 1.766802 18.938641 -6.205186 0.000000 0.000000 0.000000 -90.000465 -0.005639 -90.076073 8.367989 -0.837891 8.894353 -4.037097 -36.213749 -7.249310 0.000000 0.000000 0.000000 87.540787 88.593170 -169.564590 89.990082 1.104936 89.999023 -4.808226 -0.364061 -0.146945 178.445557 90.000000 0.000000 -98.139236 88.334496 13.317472 -89.973671 -2.931970 89.997787 2.776729 0.179748 -0.032763 182.547409 -90.000000 0.000000 
14.363406 93.125977 -4.485691 -2.618813 2.576681 1.105245 -89.999992 -90.000000 0.000000 0.027928 0.007977 -0.066360 0.101169 0.017566 -0.233747 0.000000 0.000000 0.000000 0.000000 0.000000 0.000000 89.997894 -0.054789 -89.263489 -24.948952 -2.429701 7.668714 1.751768 18.806305 -6.200556 0.000000 0.000000 0.000000 -90.000099 0.002936 -89.960754 8.441980 0.104237 9.428282 -5.266543 -43.340183 -8.028850 0.000000 0.000000 0.000000 85.405075 88.648117 -167.755127 89.986366 1.518387 89.998657 -4.917082 -0.225944 -0.073013 178.543182 90.000000 0.000000 -98.576157 88.282776 13.487982 -89.970757 -3.256974 89.997665 2.823051 0.512541 -0.170212 182.567001 -90.000000 0.000000 
14.303679 93.122925 -4.648974 -2.535874 2.467988 1.045529 -89.999992 -90.000000 0.000000 0.034874 0.001832 -0.103975 0.126805 0.000329 -0.357680 0.000000 0.000000 0.000000 0.000000 0.000000 0.000000 89.997772 -0.058429 -89.214546 -25.662977 -2.222249 7.841101 1.740639 18.708921 -6.197034 0.000000 0.000000 0.000000 -89.999542 0.017530 -89.764610 9.023600 1.804574 10.114870 -7.078789 -51.468021 -9.355647 0.000000 0.000000 0.000000 82.939545 88.700089 -165.688538 89.983238 1.868104 89.998367 -5.027973 0.006311 0.035613 178.665695 90.000000 0.000000 -99.284210 88.212868 13.786203 -89.967194 -3.654780 89.997536 2.993631 0.698771 -0.262083 182.449783 -90.000000 0.000000 
14.293751 93.128685 -4.806157 -2.435287 2.241394 1.089801 -89.999992 -90.000000 0.000000 0.039238 0.001442 -0.130780 0.148481 0.006784 -0.445843 0.000000 0.000000 0.000000 0.000000 0.000000 0.000000 89.997856 -0.055566 -89.253067 -26.409092 -1.852818 8.093229 1.748337 18.780025 -6.198858 0.000000 0.000000 0.000000 -89.998871 0.036599 -89.508339 9.870540 4.001287 11.068359 -9.651232 -59.518158 -11.468694 0.000000 0.000000 0.000000 82.000984 88.591049 -165.119751 89.981140 2.101499 89.998184 -5.052110 0.429891 0.234120 178.682419 90.000000 0.000000 -100.497734 88.282990 14.674761 -89.965073 -3.891154 89.997475 2.924992 0.918514 -0.359633 182.521362 -90.000000 0.000000 
14.331525 93.148529 -4.988840 -2.315750 1.970458 1.217443 -89.999992 -90.000000 0.000000 0.043729 0.005643 -0.144695 0.175871 0.033667 -0.494447 0.000000 0.000000 0.000000 0.000000 0.000000 0.000000 89.998055 -0.049105 -89.339821 -27.179428 -1.398668 8.408930 1.759895 18.885340 -6.201839 0.000000 0.000000 0.000000 -89.998245 0.056959 -89.234741 10.595854 5.959919 11.959879 -12.966860 -66.213974 -14.412636 0.000000 0.000000 0.000000 81.910362 88.360596 -165.457962 89.978783 2.364408 89.997993 -5.067875 0.873943 0.454830 178.679947 90.000000 0.000000 -102.768913 88.474327 16.653770 -89.963997 -4.010833 89.997444 2.617659 1.218799 -0.473243 182.822052 -90.000000 0.000000 
14.345898 93.156975 -5.178823 -2.173078 1.765984 1.307885 -89.999992 -90.000000 0.000000 0.062927 0.030074 -0.154589 0.208136 0.068082 -0.507267 0.000000 0.000000 0.000000 0.000000 0.000000 0.000000 89.998344 -0.040239 -89.459053 -27.934223 -1.068416 8.771423 1.748254 18.783417 -6.198159 0.000000 0.000000 0.000000 -89.997780 0.074459 -88.999596 11.176642 7.367439 12.513377 -16.990255 -71.305122 -18.155708 0.000000 0.000000 0.000000 80.665230 88.192818 -164.699585 89.975761 2.701488 89.997757 -5.204230 1.153623 0.594401 178.798645 90.000000 0.000000 -105.524971 88.603874 19.072845 -89.962822 -4.141684 89.997383 2.395807 1.514111 -0.575835 183.031525 -90.000000 0.000000 
14.313370 93.144135 -5.353706 -2.024216 1.640256 1.321434 -89.999992 -90.000000 0.000000 0.071325 0.040188 -0.150251 0.235494 0.095851 -0.491180 0.000000 0.000000 0.000000 0.000000 0.000000 0.000000 89.998711 -0.030147 -89.594696 -28.662657 -0.892258 9.163752 1.719895 18.532152 -6.189687 0.000000 0.000000 0.000000 -89.997490 0.085371 -88.852982 11.691930 8.344226 12.938276 -21.519203 -74.938522 -22.482691 0.000000 0.000000 0.000000 78.197540 88.125877 -162.699707 89.972908 3.020045 89.997574 -5.413199 1.472338 0.719124 179.024368 90.000000 0.000000 -107.265442 88.620079 20.376877 -89.960159 -4.440432 89.997314 2.414039 1.850508 -0.692300 183.023010 -90.000000 0.000000 
14.281243 93.127182 -5.520689 -1.888491 1.705595 1.302736 -89.999992 -90.000000 0.000000 0.077822 0.039372 -0.130790 0.244332 0.109033 -0.452531 0.000000 0.000000 0.000000 0.000000 0.000000 0.000000 89.999084 -0.020370 -89.726036 -29.348503 -1.017144 9.483033 1.730948 18.632946 -6.192523 0.000000 0.000000 0.000000 -89.997368 0.089812 -88.793289 12.126298 8.915833 13.611065 -26.802778 -77.684540 -27.609592 0.000000 0.000000 0.000000 75.842735 88.094910 -160.668732 89.972015 3.121509 89.997505 -5.455282 1.874188 0.868031 179.152588 90.000000 0.000000 -108.567429 88.587013 21.145861 -89.955917 -4.912353 89.997246 2.556674 2.041268 -0.760757 182.925919 -90.000000 0.000000 
